<svg id="Capa_1" data-name="Capa 1" xmlns="http://www.w3.org/2000/svg" viewBox="0 0 512 512"><defs><style>.cls-1{fill:#3f77bb;}.cls-2{fill:#59a7dd;}.cls-3{fill:#fff;}</style></defs><title>visualstudio</title><circle class="cls-1" cx="256" cy="256" r="256"/><path class="cls-2" d="M438,280.43l-70.65-28.54L242.94,372.47l-75.18-57-28.52,14.26.37,150.68L320.34,661.1C446.85,645.56,544.82,537.74,544.82,407c0-6.95-.29-13.83-.83-20.64Z" transform="translate(-32.82 -151.03)"/><path class="cls-3" d="M438,280.43l-70.65-28.54L242.94,372.47l-75.18-57-28.52,14.26.37,150.68,28.52,14.26,75.18-57L367.75,558.17l70.64-28.55ZM175.26,436.94V373.12L210.54,405h.36Zm185,21.23L289.37,405H289l71.3-53.14V458.17Z" transform="translate(-32.82 -151.03)"/></svg>