<svg id="Capa_1" data-name="Capa 1" xmlns="http://www.w3.org/2000/svg" viewBox="0 0 496.06 506.06"><defs><style>.cls-1{fill:#fff;}.cls-2{fill:#4077bb;}.cls-3{fill:#ae529a;}.cls-4{fill:#7a4896;}.cls-5{fill:#9665a7;}.cls-6{fill:#d587b8;}.cls-7{fill:#9664a7;}.cls-8{fill:#154d83;}.cls-9{fill:#71a7da;}</style></defs><title>github</title><circle class="cls-1" cx="248.03" cy="258.03" r="248.03"/><path id="SVGCleanerId_0" data-name="SVGCleanerId 0" class="cls-2" d="M297.63,140c-137,0-248,113.85-248,254.33,0,112.35,71.05,207.67,169.65,241.3,12.39,2.34,16.91-5.51,16.91-12.26,0-6-.21-22-.33-43.25-69,15.38-83.56-34.09-83.56-34.09-11.27-29.38-27.53-37.19-27.53-37.19-22.53-15.78,1.7-15.48,1.7-15.48,24.88,1.79,38,26.22,38,26.22,22.15,38.86,58.07,27.63,72.2,21.11,2.23-16.42,8.66-27.64,15.74-34-55.06-6.43-113-28.23-113-125.67,0-27.76,9.66-50.47,25.52-68.26-2.57-6.43-11.07-32.28,2.42-67.28,0,0,20.83-6.84,68.21,26.06a229.32,229.32,0,0,1,124.21,0c47.33-32.9,68.13-26.06,68.13-26.06,13.52,35,5,60.85,2.46,67.28,15.9,17.79,25.51,40.49,25.51,68.26,0,97.68-58,119.17-113.25,125.48,8.9,7.86,16.83,23.36,16.83,47.1,0,34-.29,61.42-.29,69.76,0,6.81,4.47,14.73,17,12.22,98.47-33.69,169.46-129,169.46-241.26C545.67,253.85,434.61,140,297.63,140Z" transform="translate(-49.61 -140)"/><path id="SVGCleanerId_0-2" data-name="SVGCleanerId 0" class="cls-3" d="M297.63,140c-137,0-248,113.85-248,254.33,0,112.35,71.05,207.67,169.65,241.3,12.39,2.34,16.91-5.51,16.91-12.26,0-6-.21-22-.33-43.25-69,15.38-83.56-34.09-83.56-34.09-11.27-29.38-27.53-37.19-27.53-37.19-22.53-15.78,1.7-15.48,1.7-15.48,24.88,1.79,38,26.22,38,26.22,22.15,38.86,58.07,27.63,72.2,21.11,2.23-16.42,8.66-27.64,15.74-34-55.06-6.43-113-28.23-113-125.67,0-27.76,9.66-50.47,25.52-68.26-2.57-6.43-11.07-32.28,2.42-67.28,0,0,20.83-6.84,68.21,26.06a229.32,229.32,0,0,1,124.21,0c47.33-32.9,68.13-26.06,68.13-26.06,13.52,35,5,60.85,2.46,67.28,15.9,17.79,25.51,40.49,25.51,68.26,0,97.68-58,119.17-113.25,125.48,8.9,7.86,16.83,23.36,16.83,47.1,0,34-.29,61.42-.29,69.76,0,6.81,4.47,14.73,17,12.22,98.47-33.69,169.46-129,169.46-241.26C545.67,253.85,434.61,140,297.63,140Z" transform="translate(-49.61 -140)"/><path class="cls-4" d="M428.15,246.2c13.13,34.63,4.75,60.19,2.2,66.57,15.91,17.79,25.51,40.49,25.51,68.26,0,97.68-58,119.17-113.25,125.48,8.91,7.86,16.84,23.36,16.84,47.1,0,34-.3,61.42-.3,69.76,0,6.81,4.47,14.73,17.05,12.22,98.48-33.69,169.47-129,169.47-241.26a259.47,259.47,0,0,0-14.57-86C496.9,271.56,458.84,247.07,428.15,246.2Z" transform="translate(-49.61 -140)"/><path class="cls-5" d="M242.61,520.13a43.47,43.47,0,0,1,9.76-13.43c-30.18-3.53-61.18-11.76-83.06-34.46C186.14,500.85,213.56,513.87,242.61,520.13Z" transform="translate(-49.61 -140)"/><path class="cls-6" d="M62.52,411.47c0-140.47,111.06-254.32,248-254.32,76,0,144.08,35.13,189.56,90.38C455.18,182.49,381.26,140,297.63,140c-137,0-248,113.85-248,254.33a256.84,256.84,0,0,0,58.76,164.23A257.17,257.17,0,0,1,62.52,411.47Z" transform="translate(-49.61 -140)"/><path class="cls-7" d="M372.36,570.76c0-23.73-7.93-39.26-16.83-47.11,55.25-6.29,113.25-27.8,113.25-125.48,0-27.76-9.6-50.45-25.52-68.25,2.57-6.43,11.09-32.29-2.46-67.28a24.43,24.43,0,0,0-7.9-.5c5.81,26.39-.41,45.27-2.55,50.63,15.91,17.79,25.51,40.49,25.51,68.26,0,97.68-58,119.17-113.25,125.48,8.91,7.86,16.84,23.36,16.84,47.1,0,34-.3,61.42-.3,69.76,0,6,3.5,12.84,12.92,12.67C372.14,624.55,372.36,600.14,372.36,570.76Z" transform="translate(-49.61 -140)"/><path class="cls-8" d="M167.09,567.8c5.2,11,22.71,37.18,68.89,31.65-.06-5.77-.11-12.23-.14-19.33C200.21,588.06,179.17,578.7,167.09,567.8Z" transform="translate(-49.61 -140)"/><path class="cls-9" d="M176,534.49a62.57,62.57,0,0,0-8.9-10.77A60.34,60.34,0,0,0,176,534.49Z" transform="translate(-49.61 -140)"/></svg>