<svg id="Capa_1" data-name="Capa 1" xmlns="http://www.w3.org/2000/svg" viewBox="0 0 208.43 208.43"><defs><style>.cls-1{fill:#fff;stroke:#7b9bd1;stroke-miterlimit:10;stroke-width:10px;}.cls-2{fill:#db3915;}.cls-3{fill:#7b9bd1;}</style></defs><title>java</title><circle class="cls-1" cx="104.21" cy="104.21" r="99.21"/><path class="cls-2" d="M347.62,152.7c-7.07,4.6-15.07,9.82-19.36,18.46-7.46,15.07,15.24,31.51,16.21,32.2a1.35,1.35,0,0,0,.77.24,1.31,1.31,0,0,0,.8-.27,1.11,1.11,0,0,0,.31-1.43c-.08-.14-8.23-14.82-7.93-25.34.11-3.67,5.64-7.83,11.5-12.23,5.37-4,11.45-8.6,15-14,7.81-11.77-.87-23.34-1-23.46a1.31,1.31,0,0,0-1.52-.39,1.16,1.16,0,0,0-.73,1.31,23.07,23.07,0,0,1-3,15.61C356.8,146.71,352.54,149.49,347.62,152.7Z" transform="translate(-248.11 -99.09)"/><path class="cls-2" d="M377.38,157.89a1.1,1.1,0,0,0,.34-1.49,1.3,1.3,0,0,0-1.54-.53c-1.2.43-29.39,10.5-29.39,22.67,0,8.39,3.87,12.82,6.69,16.06a12,12,0,0,1,2.38,3.3c.89,2.7-1.21,7.57-2.1,9.22a1.11,1.11,0,0,0,.31,1.4,1.27,1.27,0,0,0,.82.28,1.33,1.33,0,0,0,.71-.21c.49-.31,11.85-7.76,9.81-16.73a21.58,21.58,0,0,0-4.16-8.1c-2.47-3.4-4.26-5.86-1.55-10.41C362.87,168.05,377.24,158,377.38,157.89Z" transform="translate(-248.11 -99.09)"/><path class="cls-3" d="M308,209a3.9,3.9,0,0,0,.66,3.85c3.06,3.94,13.88,6.1,30.48,6.1h0c2.25,0,4.62,0,7.06-.12,26.54-.88,36.38-8.55,36.78-8.87a1.1,1.1,0,0,0,.29-1.43,1.28,1.28,0,0,0-1.44-.57c-9.34,2.36-26.79,3.2-38.9,3.2-13.55,0-20.44-.9-22.13-1.57.86-1.1,6.21-3.07,12.83-4.28a1.18,1.18,0,0,0,1-1.25,1.22,1.22,0,0,0-1.25-1.05C329.46,203,310,203.29,308,209Z" transform="translate(-248.11 -99.09)"/><path class="cls-3" d="M396.76,201.1a27.73,27.73,0,0,0-10.89,2.65,1.14,1.14,0,0,0-.62,1.31,1.25,1.25,0,0,0,1.21.88c.12,0,11.68.08,12.73,6.21.92,5.28-10.94,13.84-15.59,16.69a1.12,1.12,0,0,0-.47,1.42,1.26,1.26,0,0,0,1.16.71l.26,0c1.1-.22,27-5.51,24.26-19.49C407.14,202.9,401.33,201.1,396.76,201.1Z" transform="translate(-248.11 -99.09)"/><path class="cls-3" d="M379,227.13a1.12,1.12,0,0,0-.51-1.16l-6.21-4a1.41,1.41,0,0,0-1-.17,129.66,129.66,0,0,1-16,2.57,119.14,119.14,0,0,1-12.11.6c-9.43,0-15.59-1-16.49-1.78-.12-.22-.08-.31-.06-.36a3.21,3.21,0,0,1,1.6-1.12,1.15,1.15,0,0,0,.77-1.43,1.28,1.28,0,0,0-1.5-.79c-6.22,1.39-9.27,3.34-9,5.79.4,4.34,11.25,6.57,20.42,7.16,1.32.08,2.74.13,4.24.13h0c15.25,0,34.8-4.44,35-4.49A1.19,1.19,0,0,0,379,227.13Z" transform="translate(-248.11 -99.09)"/><path class="cls-3" d="M332.19,236.45a1.13,1.13,0,0,0,.52-1.32,1.25,1.25,0,0,0-1.23-.81c-.84,0-8.17.32-8.68,4.65a4.27,4.27,0,0,0,1.18,3.51c2.64,2.89,9.74,4.61,21.72,5.26,1.42.08,2.86.12,4.29.12,15.23,0,25.49-4.43,25.92-4.61a1.18,1.18,0,0,0,.71-1,1.14,1.14,0,0,0-.59-1.06l-7.85-4.44a1.36,1.36,0,0,0-.91-.14s-5,1-12.55,1.91a43.38,43.38,0,0,1-5.29.27c-7.51,0-15.87-1.14-17.47-1.88A.46.46,0,0,1,332.19,236.45Z" transform="translate(-248.11 -99.09)"/><path class="cls-3" d="M342.89,261.21c34.89,0,53.62-5.78,57.22-9.4a3.83,3.83,0,0,0,1.31-3.29,5.11,5.11,0,0,0-2.4-3.27,1.33,1.33,0,0,0-1.63.21,1.08,1.08,0,0,0,0,1.51c.22.26.35.7-.3,1.3-1.44,1.24-16,5-40.21,6.17-3.32.16-6.8.25-10.34.25-21.69,0-37.56-2.76-39.64-4.36.8-1.07,6.42-2.78,12.39-3.75a1.17,1.17,0,0,0,1-1.32,1.24,1.24,0,0,0-1.41-1l-1.4.09c-9.85.55-21.23,1.8-21.83,6.5a4.56,4.56,0,0,0,1.37,3.87c2.66,2.77,10.31,6.46,45.85,6.46Z" transform="translate(-248.11 -99.09)"/><path class="cls-3" d="M407,252.83a1.31,1.31,0,0,0-1.45.26s-5.29,5.14-21.07,8.12c-6,1.12-17.37,1.69-33.69,1.69s-31.9-.59-32.06-.6a1.22,1.22,0,0,0-1.29,1,1.17,1.17,0,0,0,.95,1.29,200,200,0,0,0,38.75,3.58,194.38,194.38,0,0,0,30.93-2.4c18.32-3,19.6-11.4,19.65-11.75A1.15,1.15,0,0,0,407,252.83Z" transform="translate(-248.11 -99.09)"/></svg>