<svg id="Capa_1" data-name="Capa 1" xmlns="http://www.w3.org/2000/svg" viewBox="0 0 208.43 208.43"><defs><style>.cls-1{fill:#fff;stroke:#3878ad;stroke-miterlimit:10;stroke-width:10px;}.cls-2{fill:#274e70;}.cls-3{fill:#3877ac;}.cls-4{fill:#f2f2f2;}.cls-5{fill:#f7cd00;}</style></defs><title>python</title><circle class="cls-1" cx="104.21" cy="104.21" r="99.21"/><path class="cls-2" d="M465.53,246.77a99.2,99.2,0,0,1-4.28,29h0a99,99,0,0,1-14.47,29.13h0a99.35,99.35,0,0,1-47.2,35.43,98.38,98.38,0,0,1-10.83,3.16h0a99.22,99.22,0,1,1,76.8-96.67Z" transform="translate(-262.11 -142.56)"/><path class="cls-3" d="M411.32,190.88v48.94a20.85,20.85,0,0,1-20.86,20.86H340.33a26.24,26.24,0,0,0-26.24,26.25v24h-16.4a20.83,20.83,0,0,1-8.48-1.77,98.92,98.92,0,0,1-17.88-33.7c-.29-3.07-.45-6.34-.45-9.83,0-30.4,12-45.29,26.81-45.29H366.6v-7.06H320.74V190.88c0-11.39,20.28-20.63,45.29-20.63S411.32,179.49,411.32,190.88Z" transform="translate(-262.11 -142.56)"/><circle class="cls-4" cx="78.37" cy="50.2" r="8.33"/><path class="cls-5" d="M462,263.06a97.09,97.09,0,0,1-.78,12.66h0a99,99,0,0,1-14.47,29.13h0a20.5,20.5,0,0,1-11.55,3.5h-68.9v7.07h45.85v19.36a99.61,99.61,0,0,1-12.6,5.5,98.38,98.38,0,0,1-10.83,3.16h0a99.47,99.47,0,0,1-67.14-8.09V288.91a20.86,20.86,0,0,1,20.86-20.86h50.14a26.24,26.24,0,0,0,26.24-26.25v-24h16.39C450,217.77,462,232.34,462,263.06Z" transform="translate(-262.11 -142.56)"/><path class="cls-4" d="M400.77,336a8.3,8.3,0,0,1-1.2,4.3,98.38,98.38,0,0,1-10.83,3.16h0a8.33,8.33,0,1,1,12-7.46Z" transform="translate(-262.11 -142.56)"/></svg>